
<svg version="1.0" xmlns="http://www.w3.org/2000/svg"
 width="1500.000000pt" height="1500.000000pt" viewBox="0 0 1500.000000 1500.000000"
 preserveAspectRatio="xMidYMid meet">

<g transform="translate(0.000000,1500.000000) scale(0.100000,-0.100000)"
fill="#666" stroke="none">
<path d="M6975 14764 c-453 -35 -927 -117 -1354 -234 -100 -28 -188 -50 -195
-50 -8 0 -95 -27 -195 -60 -216 -71 -414 -149 -826 -327 -82 -35 -252 -121
-284 -142 -14 -10 -93 -55 -176 -101 -228 -126 -231 -128 -365 -213 -761 -484
-1421 -1099 -1939 -1807 -66 -91 -148 -202 -181 -247 -110 -150 -393 -631
-505 -858 -158 -323 -425 -996 -425 -1072 0 -13 -5 -23 -11 -23 -5 0 -8 -4 -4
-9 3 -5 -6 -44 -20 -86 -34 -105 -127 -481 -159 -640 -98 -496 -136 -893 -136
-1415 0 -522 38 -919 136 -1415 32 -159 125 -535 159 -640 14 -42 23 -81 20
-86 -4 -5 -1 -9 4 -9 6 0 11 -10 11 -23 0 -77 266 -748 425 -1072 110 -224
391 -703 498 -848 34 -46 116 -158 182 -248 281 -386 627 -768 985 -1089 84
-76 140 -123 325 -275 139 -115 458 -341 652 -463 120 -76 124 -78 348 -202
83 -46 162 -91 176 -101 32 -21 202 -107 284 -142 412 -178 610 -256 826 -327
100 -33 187 -60 195 -60 7 0 95 -22 195 -50 624 -171 1221 -250 1899 -250 678
0 1275 79 1899 250 100 28 188 50 195 50 8 0 95 27 195 60 216 71 414 149 826
327 82 35 252 121 284 142 14 10 94 55 176 101 224 124 228 126 348 202 194
122 513 348 652 463 185 152 241 199 325 275 356 319 699 697 975 1075 72 98
158 216 192 262 106 145 387 624 498 848 159 324 425 995 425 1072 0 13 5 23
11 23 5 0 8 4 4 9 -3 5 6 44 20 86 34 105 127 481 159 640 98 496 136 893 136
1415 0 522 -38 919 -136 1415 -32 159 -125 535 -159 640 -14 42 -23 81 -20 86
4 5 1 9 -4 9 -6 0 -11 10 -11 23 0 76 -267 749 -425 1072 -110 224 -391 703
-498 848 -34 46 -116 158 -182 248 -281 386 -627 768 -985 1089 -84 76 -140
123 -325 275 -138 114 -431 322 -635 452 -134 85 -137 87 -365 213 -82 46
-162 91 -176 101 -32 21 -202 107 -284 142 -412 178 -610 256 -826 327 -100
33 -187 60 -195 60 -7 0 -95 22 -195 50 -438 120 -902 200 -1374 235 -246 18
-828 18 -1070 -1z m2772 -2701 c51 -27 96 -82 112 -132 14 -50 14 -302 0 -352
-16 -50 -61 -105 -112 -132 l-42 -22 -710 0 c-708 0 -710 0 -750 22 -22 11
-52 34 -67 50 -50 52 -58 88 -58 258 0 118 4 165 16 193 26 62 82 110 154 133
14 4 338 7 720 6 l695 -2 42 -22z m-493 -746 c16 -12 17 -33 14 -259 l-3 -246
-30 -44 c-21 -28 -50 -53 -90 -73 -56 -29 -64 -30 -179 -30 -105 1 -127 4
-168 24 -59 29 -113 88 -127 138 -12 43 -15 462 -3 479 13 21 37 22 303 23
201 1 269 -2 283 -12z m-769 -484 c41 -189 240 -323 480 -323 247 0 433 116
479 298 14 55 2 55 216 16 798 -144 1565 -577 2109 -1189 538 -605 850 -1310
943 -2130 7 -61 12 -229 12 -375 0 -269 -8 -385 -45 -610 -185 -1135 -888
-2127 -1904 -2689 -404 -223 -879 -375 -1370 -438 -195 -25 -681 -25 -875 0
-1123 145 -2080 733 -2695 1657 -341 513 -540 1066 -610 1694 -20 179 -20 583
0 768 95 891 475 1676 1116 2304 491 480 1061 797 1744 968 78 19 339 70 387
75 4 1 10 -11 13 -26z m-2934 -605 c186 -84 227 -328 79 -461 -85 -77 -9 -72
-1025 -72 -1019 0 -940 -6 -1027 73 -119 107 -118 297 1 405 42 38 70 53 126
67 17 5 431 7 920 7 804 -2 894 -4 926 -19z m-726 -1352 c68 -31 131 -104 151
-174 30 -101 -5 -216 -87 -286 -82 -70 -18 -67 -1190 -64 -986 3 -1056 4
-1086 21 -87 47 -149 135 -160 226 -13 108 58 229 162 277 l50 24 1055 0 1055
0 50 -24z m-250 -1380 c56 -26 119 -90 143 -145 9 -21 16 -65 16 -106 0 -61
-4 -78 -30 -125 -36 -65 -109 -124 -170 -139 -60 -15 -2418 -15 -2478 0 -66
16 -136 75 -171 144 -25 49 -30 70 -29 124 0 36 8 82 16 102 24 55 87 119 143
145 l50 24 1230 0 1230 0 50 -24z m245 -1380 c96 -51 154 -128 166 -222 14
-112 -55 -232 -164 -286 l-47 -23 -1055 0 -1055 0 -46 23 c-60 29 -116 86
-143 142 -27 59 -28 169 -2 220 44 84 112 142 189 161 18 4 502 6 1077 6 1000
-2 1047 -3 1080 -21z m735 -1334 c107 -49 165 -138 165 -255 0 -117 -68 -216
-176 -257 -54 -20 -73 -20 -939 -20 -858 0 -886 1 -937 20 -177 66 -236 293
-113 438 37 44 104 82 162 92 27 4 440 7 918 7 l870 -2 50 -23z"/>
<path d="M8755 10109 c-701 -50 -1359 -343 -1858 -828 -208 -203 -357 -387
-494 -616 -611 -1015 -556 -2324 137 -3280 188 -259 434 -503 695 -690 755
-540 1751 -697 2635 -414 951 305 1694 1064 1965 2009 135 470 156 963 60
1435 -221 1091 -1036 1971 -2110 2279 -320 92 -691 129 -1030 105z m325 -1618
l0 -1039 48 -16 c107 -37 197 -133 233 -250 52 -165 -13 -341 -159 -435 -193
-124 -452 -51 -553 155 -60 121 -50 272 24 380 44 64 124 129 187 151 l50 18
0 1037 0 1038 85 0 85 0 0 -1039z m1022 -308 c71 -70 128 -132 128 -138 0 -17
-652 -661 -657 -649 -13 34 -79 134 -109 165 -20 20 -61 49 -92 64 -32 15 -59
29 -62 32 -6 5 643 653 655 653 5 0 67 -57 137 -127z"/>
</g>
</svg>
